<mxfile host="app.diagrams.net" modified="2024-04-30T09:35:51.624Z" agent="Mozilla/5.0 (Windows NT 10.0; Win64; x64; rv:125.0) Gecko/20100101 Firefox/125.0" etag="4Uos2y6v9MCV5TfOjORu" version="24.2.3" type="github">
  <diagram name="Seite-1" id="9wTLY16hWp4FE8BHuPyP">
    <mxGraphModel dx="2373" dy="1255" grid="1" gridSize="10" guides="1" tooltips="1" connect="1" arrows="1" fold="1" page="1" pageScale="1" pageWidth="827" pageHeight="1169" math="0" shadow="0">
      <root>
        <mxCell id="0" />
        <mxCell id="1" parent="0" />
        <mxCell id="hNyWHt-u0odut9lcEHgo-1" value="" style="shape=image;verticalLabelPosition=bottom;labelBackgroundColor=default;verticalAlign=top;aspect=fixed;imageAspect=0;image=data:image/png,iVBORw0KGgoAAAANSUhEUgAAAl0AAAFVCAYAAADVOVrbAAAgAElEQVR4Xuy9fXRVVZYvOk/kWUPL0fjZFkhAive6qp5Wg68oJIiDr5Lb4q1WPvLRV8PHyaC0rb6SzwEiaQO5HfGG5OQpaleHgZAgGJNwfeWw6WcRA0Q+tJ79HGWN4g6QR4BAO4aO6rZuDeyrkvPO2idrZ5119t5n77PmOvtkMc8/kLPXmmvN35xr7d+ec659IvHEB+hDCBAChAAhQAgQAoQAIaAVgQiRLq34knBCgBAgBAgBQoAQIAQsBIh0kSMQAoQAIUAIEAKEACGQAwSIdOUAZBqCECAECAFCgBAgBAgBIl3kA4QAIUAIEAKEACFACOQAASJdOQCZhiAECAFCgBAgBAgBQoBIF/kAIUAIEAKEACFACBACOUCASFcOQKYhCAFCgBAgBAgBQoAQINJFPkAIEAKEACFACBAChEAOECDSlQOQaQhCgBAgBAgBQoAQIASIdJEP5A0CcTgBTcub4cPEjyR8a3IJtMbKYEIkb6aXMpGvL/RAdeVZqOiphRmR5CTd5u+lV9g6Mz2q1u2FSyPaLa7tgSfmFIxJfb48HoNHmwesuRfAbNjUWzembcMdLg5D0FlVCZeL3xiztjnVXQMb9p2115Bon7G2brg93jw3DBEohGhbGzw0eWzuAbJduIH4PjDWbCPuZ/m6BxDpys97+lU3K/nGwjaDpsGlsKtubt5hwW/uqTeO1Bsjn/+rdXem3DBFvcLW2dpQV+yDGa3Jm4a1YVUOwIOxNlgy+aLjvPNVH5kE+8E5X3WRHZ7fGEdvhGPP195tKYZTRV02aXQjlGNh3Yi6sL0g2jXBekD8TmTs2UX2tbGsj7yfMV969uiP8842RLry7pZ+dU6ILZjnVgzAku5k5MgpkpQPyLAN96WjE+HRmrnQ3zpoR7rc5r+mey78U8l7jnpNj7wfqs5sg/3r936cQmz5DeXxOR84zi2f9RH9Q/QfN5zHgi5Mj7qWs3B7Yn3cVNJtkZax5mvs4WJP1Ta4uSpmR4RGSZfzus9X28jYiz431uwi76cyaRlr+rC1sr7lCtTFSq0MiTj/fNoDiHTlw52c5mCRLHnBiFGYfINIJoVu8/9B1Vx4r3s4ZSPgei2O9OaVzuKm6za3saKPGOkaq7bhZOWmqmr4fazaTi+ONX3EFJWcvhpruvD5/mhSD/Qeu5KSXhxrujhFVMXswljTxyvSdeuQ8/0ljP2MSFe+3c2v0vmIYW3+lDKWSJfb/P/Xksnw5rE77Po0cWNYeLHNTk2ErTNPdZ4uaoHGkikwVvXhNR3/ItTajFVdGHHsjD8FW0quSUn1jjV9xLQ1S2OLkS+3NZCv64b7190jtY8iMbnxxGiqUVzP+aqLHKWT99ux5mdedbX5pAuRrquU5OSb2hTpGinEF2qscmUjHon499JWi3Cxz1h7yvVKlYzFqJ2Iv1wrNNZtw2zF09gVhfsdo71hRCD8rDevfWos+hnXWSYlY3EPkMk906m8+WvrQM1dQ85ZhTD8jEiXn5VGbbQjMFZqujgQcnpxrNU/iHqw04v8yX2s1to4OehYrk9zO1V2V1ksEfn6lzFdbyeSrrFWO8jWeXPVOShvHa0b4hGiJZOdazTztT5NXDNsrfQXbrMfunjUyKnONl/18cqW5JNtiHRppxM0gB8E5PRWPp9e5E+B4isj3ObPT8jxtJ3TqTqna34wU20jp0pS0w3Jk1jy3PJVH+8NN3kSc6zokh61Sz0VN9Z8Ld02rLD+dfhhaw1Mj4w924inF50ikmPNz9wOOow1P/OKdOWTnxHpUr1zUX80BMJ+Z1UQRUx4T5dp7+gR9Rnr709yIsCmvKdrrNtG3Kfy9V1QQfYyuQA91fec352Yr+8eFN/Vl69+RqQriHdSW0KAECAECAFCgBAgBLJEgEhXlsBRN0KAECAECAFCgBAgBIIgQKQrCFrUlhAgBAgBQoAQIAQIgSwRINKVJXDUjRAgBAgBQoAQIAQIgSAIEOkKgha1JQQIAUKAECAECAFCIEsEiHRlCRx1IwQIAUKAECAECAFCIAgCRLqCoEVtCQFCgBAgBAgBQoAQyBIBIl1ZAkfd9CEwMDAA999/v74BciiZdMkh2AGHItsEBCyHzck2OQQ74FBkm4CASc2JdKnhR701ILDz1Z0QXRPVIDn3IkmX3GPud0SyjV+kct+ObJN7zP2OSLbxi5RzOyJdavhRbw0I0KLWACqCSJPswuAwSR+TdCHbICxWjSJM8rUwdCHSpdE5SXR2CHz88cfw6//n19l1pl6EACFACBAChIAPBK4puAZWrVrloyVeEyJdeFiSJCQEvvjiCxg/fjyStHDFkC7h4u81OtmGbJMLBEzyM4aXSfqEoQuRrlysOhojEAJhLIRAEwzQmHQJAFaOm5Jtcgx4gOHINgHAynFTso0a4ES61PCj3hoQoEWtAVQEkSbZhZ7YERxCowiTfM0kXWjdqDs9kS51DEkCMgImbVKkC7JzIIoj2yCCiSyKbIMMKKI4so0amES61PCj3hoQoEWtAVQEkSbZhZ7YERxCowiTfM0kXWjdqDs9kS51DEkCMgImbVKkC7JzIIoj2yCCiSyKbIMMKKI4so0amMaSrq8v9EDVur3wx6Jq2FU310bp3ZZiePnoj2FTbx3MiETU0BvpzcaqrjwLFT21gWRm249PWqW/W18VmShgJoTQosZCEleOSXahJ3Zc38CWZpKvmaRLtuvmd7tWw9r202lusrRxAGoXFsBXg7thZXk7XBiOW2349+z/Xte4QNZm9crTUHm4EWY53NfZ+C8P18P26DS4fGgzPPDMO1bXawrug21Hnk/rE4dBeGXlKri8ut+aH/u8/ewCaDr4FVw/NQq7OivgjgR9cGrH5rK2/hto6ki2kT9mk67KAbiuaA5U15TCBAugE/B85etw8cIdgQmS16aSLVHJth/GBpfvpKt3fy+GmiSDECAECAFCIEQEnH5dhBGfh3dMssjLBDgMT89rh5m7O6F4asQiWavKfwXLOjph+Z1HXK+xtuzDSdS4ggXQfCSddIkk6LZzqeTs/VdWwn+5tArealyUghAniSIp5ETqo4YFcGDKDpvAlfbNdezPSd5VRbpY9Gly0UX430ti8NDkCDCi8X92DcK54/EU0sXIWNPyZvgwHocCmG1HwVj7upazcHvi+ofn74WNPffDP5W8B9NK/gW6Xh+ECBRCtK0NFkd6rUhX4ez34cTxYQvjxbU98MScJEP2ks8jZNMj7zvOQe5/bWFRIpp2EX5YHbPHZRE2sT+fF9eZRfwujViez8uJdMnznFX0AfzJfW9YerD261uuQF2sFL4TOQHPrRhIw4GN56Wv33XPngyJdPlFi9oRAoQAIZC/CMikazieSrIYaZKJC4sqnZzXB08WNLpeYxEo1m5r30T42ZafwIGGM46RLi6LR6xEpD7/zS/gqb+5kNKPkbSKTZ/ApMhhuGXNISvSJc6RR81ejF6TiIbVw22bOyyyKH6YjhvnH4Rlh7akRdGMjnQxQlNWcw18DJUWcTjd3QofTyyE/tbBFNLFUo79hdugsWQKfHk8BtGuCdAaK4Nbh5IpyrtHCBQnJb8tLLau33giBuXNX0Nd23ehs3Iv3FQWS5PBImxe8jnp+n1rieMcnPo/1jyYQvaiPWXwcXUVXC5OEiSuQ0vsTni1eB/MaG2zSScf766hJFGUU6IiGfveiTZourDM1on/3w0HnrIV9T3VXQNNg0tTUryZtgciXZkQouuEACFACIwNBGTSxUjL+jPladEhro1MymQyI0bF+DW39KIX+WF95UhXMl1YD7c2bIHPG1bb6UUxWsYjXYwQeunhRvaMJ12PxabC/je+A1tr74Q9Va/Dn1Wxf0fJBiMQLGqzpDtZj2URihVJosIjWJyYcLJxS023RW7iMJSQtQ2+veK+FCInEhcWgcokf033XCuC5jSHJZPl/skxb64ajXQxHUWd3JaiqKsf0sXm3lx1DspbS+FkaxV8WdxqkTc3HNic2Hw5frytqL+fbYJIlx+UqA0hQAgQAvmPgEi6vAhVMkuSrKX63fydVvpO/HhdcyNdbvVVvE7sYrwQnurca0eqUqNY7jVdOzunwUvz++CR/kWwf349HL0yDPdUdKTMWawjE/UwnnSxKNB/bz0O86onw+utV+A/J1KDYoRHTrNxIiWSmhTSNULIeCqNRXU+TkS+Puk6Z0eNRJkyuXGSL5MmuQ1P6yXr0pxJV1dCN5b6Y23kD5vj9qNXrK95+tQf6bpoEbwbK0vgZNsFi3zx2jiRWDG5bIxTRV3w+JwP7DQpn4eY7vSzRRDp8oMStSEECAFCIP8REEmXWMslF5kzQrZh3qZEdGlXGuHyusYQcCNdXuOxfv/2xQF47qevWfVkD0c67AL4iZH0QnoRaU6oWLSL1W69sGYopfaMtb1qSRcjTL9vrYbPCifBb2EF/G3Rr1NIV+BIl0C68j3SJUekvMggdyiZhLL04C/PTYAvJhdbacbk08hoNDAZzRolgnJkLpstgUhXNqhRH0KAECAE8g8BkXSxlBsvQhdnyiNPMzcfsU8L8ute18Q2TqcXM50kZPea91ofserHlpyPOp6wlCNYYsrys4aFVt+ahefT6ruuatLFapPkOiixlslPzZWdekwU3J+eXWXVKPHaqa3V42CbkLKUiYsf+Zg1XXx8OYJmvUYjcaLzwVh66tSNdIl95EJ5GQdW5+ZVw+YUhXPaIoh05d/GSTMiBAgBQiAbBDjp4vVScuG5KuHyinTJNV1y5EuMdInF8E6vguC6i2SK/98p0nXV1nQxciWm0pzSan5OF4r1XtfOjsDxY+fTTi9yIpeesnQ/HRn09OINRaXwwKXjKTVdXqcXWaRqw76zlr+wk4/TEycPbyrphorC/Y6F9Cxq1VlVmYhuzbJOcU5PnJRktXA/bK2x30HGI10yDk6nF4OmFtk8iXRls7VRH0KAECAE8g8BTrrc6rm83uHlFn0S3+PlRbrYNZn8iOMVRCan1HRx9NxIlxw542lPuabrqjy9qMP15LSajjEyycz1u73YeJu6vgPP146+YFY3Dia9TJB0yeTR4V0n24SHfaaRyTaZEArv+lizjVeKUZcubqlFZjVjC+l1uKRusuE0Zx55evNc8v1f2USOssWCRcme3veN9XoKHsVisnTjoGshZIuDSj/SRQU9vX3JNnrxVZFOtlFBT2/fsWgbNxKkQ5dMdWREuvT6J0nPAgEdCyGLaaB0IV1QYNQihGyjBVYUoWQbFBi1CCHbqMFKpEsNP+qtAQFa1BpARRBpkl0YHCbpY5IuZBuExapRhEm+FoYuRLo0OieJzg6BMBZCdjPN3It0yYxRWC3INmEhn3lcsk1mjMJqQbZRQ55Ilxp+1FsDArSoNYCKINIku1A0BcEhNIowyddM0oXWjbrTE+lSx5AkICNg0iZFuiA7B6I4sg0imMiiyDbIgCKKI9uogUmkSw0/6q0BAVrUGkBFEGmSXeiJHcEhNIowyddM0oXWjbrTE+lSx5AkICNg0iZFuiA7B6I4sg0imMiiyDbIgCKKI9uogUmkSw0/6q0BAVrUGkBFEGmSXeiJHcEhNIowyddM0oXWjbrTE+lSx5AkICNg0iZFuiA7B6I4sg0imMiiyDbIgCKKI9uogUmkSw0/6q0BAVrUGkBFEGmSXeiJHcEhNIowyddM0oXWjbrTE+lSx5AkICNg0iZFuiA7B6I4sg0imMiiyDbIgCKKI9uogUmkSw0/6q0BAVrUGkBFEGmSXeiJHcEhNIowyddM0oXWjbrTE+lSx9BVwtcXeqC68ixU9NTCjEgkq5H4D15fLn4DnphTkJUMlU6iDncN9frSh/WpWrcXLo0MvLi2J9DcTdqkSBcV78Pvy36MdmV5O1wYjlvClzYOQO3CAmA/iLu2/XTagPx6HAbhlZWr4LUz30BB5E54qnMPFE9NrmlR5riCBdB8pBFmOax3px/dZX1XrzwNlYdH+1w+tBkeeOYdS7Ys7+1nF0DTwa/g+qlR2NVZAXckpsDmFntsJQxHD1m68Dmtrf8GmjqSbcbah9ZN/lqMbKNmGyJdavh59jaNdPkhjnE4AU3Lm+GWmm6LaFkErHIAHoy1wUOT/e3+bFH37u/VaBkSbSoC0TVRV9WG44fh6XntMHN3p0WYPv/NL+A//3wAlnUk/xY/jPg8vGOSTWwY2Tk5r88iNeK1CXAYNszbBH/acNgmb+sO3m/34zIZuZJJECdXIrGSSRgjauvPlMNbjYsscsdlfNSwAA5M2QHbo9Os+RQf+D/g7ed/mqKDE8kbK3anG3v+Wopso2YbIl1q+AUiXV8ej8GjzQNWnwKYDZt66xwjYJy4fBiPw7WFRTA9cgJuKumGx+d8YBEa9r3Yn0XD9lRtg2uLCqHr9aOW/LvKYrCxcL89Hvu7sWRK4qk4SYpkGayPPL+NPffDgeJtdtu6tu8mxhmN3ImyIlAI0bY2WHixDaJdE6A1VgYTRu5j77YUw6miLt/RLiJdGp3ScNFepIuRk9K+uRaBYR/mZ++1PmKTKQ6NTM7Y3xvnH4Rlh7akRbBkMiX35TJF0sa+Y39v7ZsIP9vyEzjQcCYl0iWaSCRhdx/eYs+fE6oXo9ckInD1cEPNi7By+o0p1vWad767Ad3Y89dCZBs12xDpUsPPN+maHnkfnlsxAEu6k6nGU9010DS4FHbVzU2TwUhKf+E2iyRxIsRSdH92vDTle05uvhMZgs6qSnh3YqUlj6f3/lhUbf/N05y/by2xZYhzYATKaX7tZZ/aKUUxvTg9ctEak6c92TxlssUU44Tw5qoYRbo0+hqJTiLgRbpkjP7tiwPw3E9fsyNf/LoYXWLfcWI1Z2oHdPSlphf9kK5MpE1OL4rzzBTperKg0YqE7amdCePHj09zA5nsjRU/oRt7/lqKbKNmGyJdavgFIl1NK/bBjFbvNJtMfnhN1x9XVMG/xY7ZpM2KMo3IWzL5ohXp4sRGJjq87Z+3lMJvarrsOYhjMVLoND+3mi4/9V08Evbvpa0WgfT7oUiXX6SonYyAX9LF66D+v4WvWik6/nGKVPGarZmbj1gpRJFoOaUXH9/xdVrNl1t9lVNNFyd6rPbsYnxKiiyxpmtn5zR4aX4fPNK/CLrm18MHV4bhnoqOFH3GaoqRbuz5u7bJNmq2IdKlhp9v0sWiW2KBOU/HyXVOTnVgLPL1cWExfNJ1zi7KF4lVINJV3WKlC/lHnIfT/BZHRovnRaLF/r++5QrUxUrtNKIIhsoBACJdGp3ScNF+SBcjVqwO6w9lL8LfPzkjBRG5lkuMdPGidJmYiYX00yu2wN2HdsFtmzvsOjEnmXxQN9LlRQLFiNzLw/XAol0vXK6El//6i5SaNdaOSFf4Dm8SSWFomqRPGLoQ6dK4Jr0K6d3TcalpPuxI18c1R+1omZfqfH5bq8fBtpE6Lpl0eZ3MVDlEQKRLo1MaLjoT6RKjVmt/9D/SUnIsksQL1EXiU7/qE3hyd/IkoFvdFmvvlEp0KqL3S7pYO6cUoTjOZw0L4aMf74eN//ELq75LJHxEusJ3+DBu7Dq1NkmfMHQh0qXRO0Xi8b0TqQXmbqSLTSebmi4/6UWW2ryue7SmS5zDjSdSa7IykS65pkuFZMkmINKl0SkNF+1FuuQ0obzhJl8LkUpaOFwi8ZHTi+KJSLkezI2IuZEuOSrmRvBEMsX+7xbpopqu8B0+jBu7Tq1N0icMXYh0afROmYgwMrX96BVrRO/Ti8nC+DfPDQc6vZippouRriWTE7VbI6cX5RSn0/w4ufrluVng5/QiT5cy3b3Sj16wE+nS6JSGi/YiXZnexZUpgsVSkkcTdVPyu7PE92qJ788SoXYjP07pRXGe8jvBmEyn4v2axNzkmi46vZgfzh7GjV2n5ibpE4YuRLp0eifJzgqBMBZCVhP10Yl08QFSSE1yaRuvFCOG+k66jNXUIsMjl7bBwD/TQ6TTyVLd4+qST7ZRQ5ZIlxp+1FsDArSoNYCKINIku4RxY9dJgmTb6CZ5CO7kKcIkXzNJlzDWjU5fC8M2RLp0WpRkZ4VAGAshq4n66ES6+AAppCZkm5CA9zEs2cYHSCE1IduoAU+kSw0/6q0BAVrUGkBFEGmSXeiJHcEhNIowyddM0oXWjbrTE+lSx5AkICNg0iZFuiA7B6I4sg0imMiiyDbIgCKKI9uogUmkSw0/6q0BAVrUGkBFEGmSXeiJHcEhNIowyddM0oXWjbrTE+lSx5AkICNg0iZFuiA7B6I4sg0imMiiyDbIgCKKI9uogUmkSw0/6q0BAVrUGkBFEGmSXeiJHcEhNIowyddM0oXWjbrTE+lSx5AkICNg0iZFuiA7B6I4sg0imMiiyDbIgCKKI9uogUmkSw0/6q0BAVrUGkBFEGmSXeiJHcEhNIowyddM0oXWjbrTE+lSx5AkICNg0iZFuiA7B6I4sg0imMiiyDbIgCKKI9uogUmkSw0/6q0BAVrUGkBFEGmSXeiJHcEhNIowyddM0oXWjbrTE+lSx5AkICNg0iZFuiA7B6I4sg0imMiiyDbIgCKKI9uogUmkSw0/6q0BAVrUGkBFEGmSXeiJHcEhNIowyddM0oXWjbrTh0a6vr7QA1Xr9sLdtT3wxJwCWxP2fXXlWajoqYUZkYiyhu+2FMOpoq6UMZSFugiIwxB0VlXCm+eG4a6yGDSWTNE1VGC52LgGnkCADiZtUvmmC/sh5NUrT0Pl4UaYJa2vOAzCKytXweXV/VC7MLkmWfuV5e1wYTgO1xTcB9uOPJ/Wz0smk8F/6PnJgkZY2346zROWNg5Y47397AJoOvgVXD81Crs6K+COxPJ3m9Pa+m+gqSPZJttPvtkmWz1MuxGapo9Jfka2UVmlyb6hk65PYTZs6q2zCRY2Ocgl6cKeu7p5RyXk89xkPdkm1bu/F1N942VF10Qz6nj50GZ44Jl3YFzBAmg+kk66GDlipIiToOH4YdgwbxP8acNhixS9/8pK2HR0nk2I2ICZZDJC5kaQWN+Hd0yy5N12brTdRw0L4MCUHbA9Os2SX9o3F95qXJSiHydyrE22H5NuhibpQjf2bD06N/1M8rUwdAmVdLGIVlnNNdB+dBbsqptreYxIDu4a6k2JevFr0Z4y+G11C1xbVAhdrx+1+rHI0sbC/fBo84D9N4s0MdL1z/F74dixY9b3i4XIWhxOQNPyZvgwHocCgfyxcepazsLtiesfnr83hRQyGU79pkfet2VFoBCibW3w0OTRx3Cxj3g9yBzEMcT5ykvty+MxGwfWbmPP/XCgeFuKnm6ynHR3aysSWtZvfcsVqIuVwoSE2vIcRGKdaWsg0pUJofTrmUgXiyJt7ZsIP9vyEzjQcCYt0sXIUcWmT2BS5DDcsuaQRbJkwvRvXxyA5376Gszc3QnFUyNWZMpLJpsla3NyXp8dOeMzZ4Tu6XnttiyRXHFC9WL0mkTkrR5u29xhjSd+WP+N8w/CskNb0iJvftELY8P1O7eg7UzShUhXUOvntr1JvhaGLqGTLpZG/H1riZ0C9Eu6Pq6ugncnVlpkjacq/1hUbf/NU5RMdvuF5dAaK4Nbh1JTl4w09Bdus9KAp7proGlwaYo8OfXJXVvsx8hFtGuCo3zenqcdLxe/YaU5xT4nW0fnIMuS069u8xWXHCNxz60YgCXdyfQs16u97NMUAuulg99x2XybLiyz8BP/7zYHTqwzbRFEujIhFJx08R5OqcBkCq8ebm3YAp83rLbTi5lIl5dMds2LGDFitf5MuR3BEsfikS6WjhTbyFq7ETq/6IWx4fqdW9B2JulCpCuo9XPb3iRfC0OXvCBdLJLSXHUOyltLU4hRpkjXzVUxK5rESM2eqm0w+ncigrViH8xobYPrukcJHXNNHp15fM4HdpukjFGyIo/rRWqsSNXIWIsjqZE53s8ttSeTEy9Z4jV5vmLtm9zOaQ4Mb5GYZTuuaLeTrVXwZXHriD1GMRGjfX63BiJdfpEabZcp0uVFkFIjS6M1XU7pxdrXrsBTnXtSIk9uNV1uqUU5ysXnJtZ07eycBi/N74NH+hfB/vn1cPTKMNxT0WGlHPlHNcUYxoYb3LL+epikC5EufzYPq5VJvhaGLnlBunhEpjP+FPxt0a/tiAwO6aq2yUAa6RpJLXLn5Wk/N/LE2skESiR8XqRLTL25kTEvWWIaUp6vTGx45O9SoqGTTjKu2Y67ZPJFi+zeWFkCJ9suWKSZpRY5TixiJs7BLwEj0hV8O82WdInEaGLEu5D+7v/0NEx/vyst3edGusSaLbHg3e17UWux+P7l4Xp4Yc1QSjqStSXSNYpYGDeP4F7qv4dJ+pikCxFi/z7s1jJvSBe/8X97xX3Q3zponV7EIV2jkS4xzcciXWK0RwTIq+g8SHTKjVzx74PIktv6NT1PWW6tHgfbqpKnQoNGutxwYnNg6ctfnpsAX0wudj2tKaZNOSnzmj+RLr/WHW2XLenixfPyiHJUiV1nNV1b//JYWh1V0EgXi2jxQnknTcW05GcNC62asJqF59Pqu4h0EekKvlJy34NIV+4x9ztiGLbJG9IlRkf4iUargHskdceiJOwGv3Hf7fBM719ZhfR+04sdw+vSar1YdC1obRY3ZNB+ck2XSOpYzRmvK8tUH+Y2rkhkZILjRLqC6u41rhVVqxyAB2OjBwfc5sDq6oh0+d0OgrXLlnSJo8ivZ5DTgOz04n+5tCrtJKEb6XKq6eL1Y07F8XwuIpni/3eKdFFNF5GuYKsknNZh3Nh1amqSPmHokleki0dOGLHip90Y0dqw76zlQ98vLYUbus/Dg93J04t+SRc/vSifKnQ7UZjp9QpeJw7d3jGWzelFWZabDHmBMZK0/egV62t+ynF65KL1DrFfnptlYet1ejHIuMkI5evww9aalPeqOc3B73vXKNIVfMvUQbrYLPgrIdj/r5vyn2D3az9Pe9TJW1UAACAASURBVDeW13u6ZGLkVs/FNZbrwHhdmVzTRacXU30kjJtHcC/138MkfUzShVnQJH3C0CU00uV/+VHLfEaAEdRNXd+B52uTr/zA+ISxEDDm7STjatfF6z1dKpirphbp5qGCvv6+V/u60Y9w9iOQbbLHjvUk0qWG31Xdm0Uhn973Tdo7yVRBoUWtiqCe/tnaBYMgiRphEbls9dGDrppUk3QhQqzmC7p7m+RrYehCpEu3h5L8wAiEsRACT9JnB9LFJ1AhNCPbhAC6zyHJNj6BCqEZ2UYNdCJdavhRbw0I0KLWACqCSJPsQtEUBIfQKMIkXzNJF1o36k5PpEsdQ5KAjIBJmxTpguwciOLINohgIosi2yADiiiObKMGJpEuNfyotwYEaFFrABVBpEl2oSd2BIfQKMIkXzNJF1o36k5PpEsdQ5KAjIBJmxTpguwciOLINohgIosi2yADiiiObKMGJpEuNfyotwYEaFFrABVBpEl2oSd2BIfQKMIkXzNJF1o36k5PpEsdQ5KAjIBJmxTpguwciOLINohgIosi2yADiiiObKMGJpEuNfyotwYEaFFrABVBpEl2oSd2BIfQKMIkXzNJF1o36k5PpEsdQ5KAjIBJmxTpguwciOLINohgIosi2yADiiiObKMGJpEuNfyotwYEaFFrABVBpEl2oSd2BIfQKMIkXzNJF1o36k5PpEsdQ5KAjIBJmxTpguwciOLINohgIosi2yADiiiObKMGJpEuNfyotwYEaFFrABVBpEl2oSd2BIfQKMIkXzNJF1o36k5/1ZKuOJyAphX7YEZrGzw0ORIYya8v9EB15Vmo6KmFGZHU/vzaY7GpsKfKuY2fAb3G8NPfqU1QmX7a+2kTZL4mbVK51IX9EPTqlaeh8nAjzBrxycuHNsMDz7xjwT+uYAE0Hxm9xm3i1I99t7K8HS4Mx+1+3/vDH2D8+PEpphR/zDoOg/DKylXw2plvoCByJzzVuQeKpybXxtvPLoCmg1/B9VOjsKuzAu5IfM3bX17dD7ULC6x2WD9m7cffcmkbP/NRaWOSLnRjV/EE/X1N8rUwdLlqSdeXx2Pw0tEr8MXkYmgsmRLYU/0QDT9tvAZW7T+WSVfv/t7ANjG1Q3RNNKNqnFyJxEomU4wgrT9TDm81LrLlOfUbjh+GDfM2wZ82HLbIEOu37uD98MJLK+AHAumSCRIjVifn9Vl9mNyHd0yyCNZt53bD2vpvoKmjAj5qWAAHpuyA7dFpVpvSvrkp82ETE4lcRsUVGoSx4SpM17OrSboQ6dLlJThyTfK1MHS5KklXHIYSEahtcGNlCZxsuwDlraUwYSRYxYhOXctZuD0RCfvw/L2wqbcOpkfeh6blzfBhPA4RKIRoWxssjvRaka7C2e/DiePDljcvru2BJ+YUAJNRtW4vXBrx8QKYbclhETErwjYiy+17NsbqWCn8prrFGpO3u2soOSaProkRtX2tqXNmbcU5iHNzi9AxIvpo84A1azbmxp774UDxNnsOs4o+gD+57w1bx/UtV6AuMc9bh1Kjfm46+l3ybCEQ6RpFKxPpYmRna99E+NmWn8CBhjMpkS4Rc5mEufWTyRQjYU/Pa4e7XtwOK6ffaIsUSRZrs3H+QVh2aIsdZeMNRXLFCdWL0WsSUbF6uG1zhx0N4+29ZPn1IT/twthw/cwrmzYm6UKkKxsPyF0fk3wtDF2uStLFyAonDCdbi+FUUZdFJNiHE6a7RwgUI2idVZVwuThJNhgxiXZNgK3V46C5ci/cVBazImX8+9ZYmU1CnNKL77YUQ3/hNqvPqe4aaBpcCq/W3ek6xjYhPSlHvkTS1ZmYy+icU1OnYj+ZuPGlyojScysGYEl3Ml3K59Ze9qlN9L53og2aLiyz9eX/l+flpOOuurm+dwUiXalQZSJdvLVTmlCU5BTpYtflfn5Il0yMeJ85Uzugoy81vSjK45GuJwsa06Ju4lxFQufbcQI2DGPDDThF381N0oVIl2+zh9LQJF8LQ5erknQxQtEZf8omD3/93o+BkwI3YiPXbnm148RGJl1yHRknOotanWu/Ms3Fb+2YSKi8SJdTjZs4Bxbxa646Z0UGT7ZWwZfFrVY9nNxGlCOTOT+7BJEuXNLF67Muxqek1Fm5kTWn9OLjO76GtS+9ZEe6ZGLGx5i5+YiVXnRKPfKarp2d0+Cl+X3wSP8i2D+/Ho5eGYZ7KjqslCP/5CLFGMaG68f/s2ljki5EurLxgNz1McnXwtDlqiNdPHL15rlkSpB9xDSfE9HhUTGegmR9siZdI6lFPjZLJT5aMxfe6x62UnV+x2DRqEyki0Wctifq1kQd3UgX14mnJOU0KiOd0yMXHdOyaaTLQUeWkvV7YIFIFy7p4tJ4mnDm7s6UlF6mQvrpFVvg7kO74IaaF23SJdZssaJ4t+iYPBabCydULNr18nA9vLBmyEpfim2JdAW7iYZx8wg2w2CtTdLHJF2IEAfzY6fWVx3pElOLnOAwcsJTjJmiSxzEbEmXmMJzk+VnDC/SxWuqbqnptuuveB2XF+kSHURMo4opThYl/OW5CSkHEGTS5aRjEFcl0qWHdDGpTmm7TGlJnkr8D/9XLSy4MXl60Ylk1a/6BJ7cnTyZ6EbwxLTkZw0LrcL7moXn0+q7iHQFWTEAdGMPhlcuW5Ntcol2sLHCsM1VR7oYaXj3jma7houZiBEMnmKUyZRc0+UWXXKqm8pU08WJTUvsPjhYXWXXjbmNIacnmS4b990OdW3fTXk1hRMhrKocgAdjowcA5HSpWJPGyKgb6bJq3kZk8ciVV02XLNfPkiDShUO65GiU30iX3I7Xgu2pnWm/MsKp2F0kdG6vfhDJFP+/U6SLarr8rJTRNmHcPILNMFhrk/QxSReKdAXz46s+0pU8tfg6/LC1JuXdWiKZ4acSRVIinsZzSruJUSfWj0eToj1l8HGCTP3y3CzH04tcFiMvTmMsmXzRKrAX+zOitWHfWcuW3y8thRu6z4NTTZjY7trCokRq8ATcVNINFYX7Xd8v5pSOZClFcQ7JFGMqhulEdfSEpqijX3cl0oVDupgURmzWtp+2BMrvzuKjZHq/F3+31g1/+CLlPV0yMeK1YKxGy+mdYE7RMfZqCrmmi04v+l0pRLqCI5X7HkS6co+53xHDsM1VF+nyawxq54wAI1ibur4Dz9f6P40YFMswFkLQOfptb7Iuul5kmovUIj2x+/XgcNqZvG7CQRRvVLKNGpZEutTwu6p6s+jZ0/u+sd5T5rcoPhuAaFFng5r+Pk52wSZIuoicEzrkZ/p9JtsRyDbZIqe/H9lGDWMiXWr4UW8NCNCi1gAqgkiT7EKRLgSH0CjCJF8zSRdaN+pOT6RLHUOSgIyASZsU6YLsHIjiyDaIYCKLItsgA4oojmyjBiaRLjX8qLcGBGhRawAVQaRJdqEndgSH0CjCJF8zSRdaN+pOT6RLHUOSgIyASZsU6YLsHIjiyDaIYCKLItsgA4oojmyjBiaRLjX8qLcGBGhRawAVQaRJdqEndgSH0CjCJF8zSRdaN+pOT6RLHUOSgIyASZsU6YLsHIjiyDaIYCKLItsgA4oojmyjBiaRLjX8qLcGBGhRawAVQaRJdqEndgSH0CjCJF8zSRdaN+pOT6RLHUOSgIyASZsU6YLsHIjiyDaIYCKLItsgA4oojmyjBiaRLjX8qLcGBGhRawAVQaRJdqEndgSH0CjCJF8zSRdaN+pOT6RLHUOSgIyASZsU6YLsHIjiyDaIYCKLItsgA4oojmyjBiaRLjX8qLcGBGhRawAVQaRJdqEndgSH0CjCJF8zSRdaN+pOT6QrIIbsB5+r1u2FS1K/xbU98MScAk9prG915Vl4LDYV9lSdhYqeWpgRiaT0icMQdFZVwuXiN6CicL/V3qldwGmPqeYmbVI6dWG/U7h65WmoPNwIs0b8iH23srwdLgzHLZsvbRyA2oWpfhmHQXhl5Sq4vLrfvjYcPwwb5m2Co1eG4fqpUdjVWQF3pLomMF0u/rd18PJwPWyPTgMu57Uz30BB5E54qnMPFE9Ndnr72QXQdPCrFFlO4+bytxblRaDTNrlecCbpQjf2XHtPsPFM8rUwdCHSFczfgBMnkQhZRKxyAB6M+fshaCcZfBoi6cpE4gJOfcw0Zwuhd3/vmJkv9kSja6IZRV4+tBkeeOYdGFewAJqPJEkXI05Pz2uHmbs7LfLDCM2q8l/Bso7k3/zDfqR6bftpm5DJZIhdX3+mHN5qXJQyj89/8wuoaR4HTR1JQsaI1cl5fRZxY/N5eMcki6zddm43rK3/xmr3UcMCODBlh0XSWJvSvrlpcrF/NDsjeCMNwthw/c4taDuTdCHSFdT6uW1vkq+FoQuRroD+6kSYGFHaU7UNbq6KweJIb0p0Smx/11DymhzpisMJaFreDB/G43BtYRFMj5yAm0q67UgXa9/VegV+NKkHeo9dsWYsRtbk/jMiF+GH1TF4aPLojVaet/z3l8dj8GjzgCW7AGbDpt46KwonR/b4uF5jitdEWX6hJtLlTboY2dnaNxF+tuUncKDhjB3pciI1IjFi+DMiVrHpE5gUOQy3rDlkESZG1jbOPwjLDm2xyJtTBI317Xl6Pgw+8K5jH9G24jw4oXoxek0iulYPt23uSCGArJ88vl8/UW0XxoarOme3/ibpQqRLl5fgyDXJ18LQhUhXQD90i3Stb7kCdbFSuHUomULkkTA/pOvdlmLoL9wGjSVTgJMfRm54epGRrs7KvXBTWcxuE+2aAK2xMpiQ4FVy/8eaByHalhp18yJd0yPvw3MrBmBJdzLdeaq7BpoGl8KrdYmoxop9MKM1KUuU8fvWkpQ5i2OK8+GydtXN9Y00ka7MkS5OoOT0ogiyHPlKRrTq4daGLfB5w2o7vSin+OR+nBjVzvtHKDu81SZmLJo1Z2oHdPSlphdFeTzS9WRBo2P0jM9XJoe+nUWhYRgbrsJ0PbuapAuRLl1egiPXJF8LQxciXQH90K2m61uTSywSFJR0yYTHqaZLjoyJ5MepP4+6+Y10MRkiuXKDhEWwGDn7izfmwj+VvGeTNDHSt2RyqizehxM6P3AT6VInXTxl+Lv5O63UHvukRp1Ga7rE1CBLGzqRLkakos/8EZ7f83Mrtchrx2ZuPmJFvmTiJtZ07eycBi/N74NH+hfB/vn1Vt3YPRUd9rzEufG5+vET1TZhbLiqc6ZIly4E9ck1yc+IEKv7CZGugBi6pRfdit8zRbp4ylGsEWORolNFXSmRLrHwXpbJo2ws6iUSIL+kS04jRqAwJVLG5rP9aDKtydKFdW3ftdKdLLInj2mRrpFUKYdWlpcJciJdaqSLF8VfXr3LJjYiKZoYSS2k9xPpYsTsL//hVtj92ijp4nVbbkSN25mTPRbtYkX4L6wZSqk9I9KVaUVkvk439swYhdWCbBMW8pnHDcM2RLoy2yWlhVsRvEyU/KYX8yHSJZ+gZClOlr5sid0Jr65ohltquq2TmVz3Nd3ekS4xVRkQXqs5ka7sSZccgRKJDyuelz8s4sRIUKaaLjnSxYhd/apP4MndyaJ6p+gYG0us1/qsYaFVeF+z8HxafVcYxfRhbLjZrAc/fUzShaIpfiweXhuTfC0MXYh0BfRd50hXohB+pPZJTq+xmqaN+263CtPdCun91HS5RboYYfJT02UVtwv1WeK8vneizSJZvEaMk66t1eNgm/BqC/GU5nXd/mq6uCwu2w/cRLqyI11uhEvGXD6tKKcinU4vMvIk1nQxmWIdlturH0Qyxf/vFOmimi4/K8O9TRg3D7UZe/c2SR+TdCFCrO71RLoCYujnPV2M0GzYd9aS/P3SUrih+7xV/+R+ejH5bq43zw27nl70Il3iacEbikrhgUvHrZOUYnqRzcVtXpy4iSlEfnpR7COerHx8zgd2GlEeU5xP0NQiRboA/LwyguEknzLkr4KQXVp+V1e27+kSTy/yKBZ/t5f46go+vlPakrcXa7ro9GLATcihOd3Y1THUJYFsowtZdblh2IZIl7rd8kqC1zvAdE0Ue8wwFoIubEzSRX5PFxZmYaQW6Ykdy3p65Ji0bkzShdaNur8T6VLHMFQJ/LQji5KxTzaRpaAK6B7TpE3KNF3EN9IH9Run9vRGegwUk3WQ48ePxxGWB1JM0sckXYh0qS8OIl3qGJIEZARM2qRIF2TnQBRHtkEEE1kU2QYZUERxZBs1MIl0qeFHvTUgQItaA6gIIk2yCz2xIziERhEm+ZpJutC6UXd6Il3qGJIEZARM2qRIF2TnQBRHtkEEE1kU2QYZUERxZBs1MIl0qeFHvTUgQItaA6gIIk2yCz2xIziERhEm+ZpJutC6UXd6Il3qGJIEZARM2qRIF2TnQBRHtkEEE1kU2QYZUERxZBs1MIl0qeFHvTUgQItaA6gIIk2yCz2xIziERhEm+ZpJutC6UXd6Il3qGJIEZARM2qRIF2TnQBRHtkEEE1kU2QYZUERxZBs1MIl0qeFHvTUgQItaA6gIIk2yCz2xIziERhEm+ZpJutC6UXd6Il3qGJIEZARM2qRIF2TnQBRHtkEEE1kU2QYZUERxZBs1MIl0qeFHvTUgQItaA6gIIk2yCz2xIziERhEm+ZpJutC6UXd6Il3qGJIEZARM2qRIF2TnQBRHtkEEE1kU2QYZUERxZBs1MIl0qeFHvTUgQItaA6gIIk2yCz2xIziERhEm+ZpJutC6UXf6UEnX1xd6oGrdXri7tgeemFNga8O+r648CxU9tTAjElHW8t2WYjhV1JUyhrJQFwHij0HfVRaDxpIpGYcS9b1rqDdFdywssORkVAahgUmb1Oe/+QX8zc874cJwHMYVLIDmI40wS/Jp9qPPq1eehsrD6dfiMAivrFwFl1f3Q+3C0TXCYf7drtXw8nA9bI9Os5F36vP2swug6eBXcP3UKOzqrIA7EsvKqZ3XD1CbZBe6eSAsVI0iTPI1k3ShdaPu9HlBuj6F2bCpt84mWNgEIZekK5u5e5EudRMnJWQzL6yxg8phm1Tv/t6g3XLeProm6jnmcPww1Mz7BczZ/RoUT40AI0jrDt5vkx7W+fKhzfDAM++4EjLWZ237aVjaOJBGutwIktxHbPdRwwI4MGWHRdLY2KV9c+GtxkUpejgROdM2W9P0oRt7zpe/7wHJNr6hynnDMGwTOuliEa2ymmug/egs2FU3N40guEV+oj1l8NvqFri2qBC6Xj9q9WORpY2F++HR5gH7bxZpYqTrn+P3wrFjx6zvFwuRtTicgKblzfBhPA4FAvljJKWu5Szcnrj+4fl7U0ghk+HUb3rkfVtWBAoh2tYGD00ejdTxyN6lEddi83h8zgd2H9Hj+FxE/TPJ5/2/PB6zMWByNvbcDweKt6XoKMrKpLdT29+3ltjRQ6bX+pYrUBcrhQkJdeXxRULtZ1WZQroY2Yk+80d4fs/PrcgSI2Eb5x+EZYe2WNEuFn3a2jcRfrblJ3Cg4UxapIv1r9j0CUyKHIZb1hxKI12s/8l5fSnfO/URyRUnVC9Gr0lE0Orhts0dFiEUP/I8+bUwNig//pJtG5P0MUkXIsTZenRu+pnka2Hokheki6UR5Zs4Ty96ka6Pq6vg3YmVFlnjhOaPRdX231wGk91+YTm0xsrg1qHU1CUjZP2F26w04KnuGmgaXJoiT059crcW+zGSEe2a4Cift7dI2op9MKM1ScTcoluZ9L1c/IaVJhXHZERHHOe5FQOwpDuZmuU6tZd9mpK29Jq/nPJ1wuiVub+GpgvLLNzYXPj/mZ5O43NC7WdbMIV0+Yl0MTyc0ovJ1F893NqwBT5vWJ2WXnQiRm59nCJdTxY0wvoz5WlRLm4fJ0IXxgblx1+ybWOSPibpQqQrW4/OTT+TfC0MXfKGdLFoSnPVOShvLU0hRpkiXTdXxSwSw2qp9lRtg9G/R0nOdd2jURnmljzdaEWZBCIkEgZ5XNGdZWIhEqrFkdSaLLdl4DaWm76PxaYm9Mtc5yaTOz6+SPIY1iIx8pq/LI/P+y/emAsHa85b9jrZWgVfFreO2CGVXGazDZhCupju//bFAWj6aRMcvTKcUk8l4uJEulIjUuk1XU6pRa8+Yk3Xzs5p8NL8PnikfxHsn19vze2eio6UujCnFGMYG1Q2/uO3j0n6mKQLkS6/HhxOO5N8LQxd8oZ08ahMZ/wp+NuiX9tRGRzSVW2TgjTSNZJa5O7L04Je5EmujxIJXybSxQjf9qNXrOGcUohepKurdTSF57XcxDSmkz7yGF7zF9OoIkZr2mrgX2OtcGNlCZxsu2CRLx5xcxpfTLNm2ipMIV2MGJWX/9+woiNZ08XSfA/Wf51WTC+TLpFQTYw4F9IzWQ/vmGTXh/npw3HnhIpFu1gR/gtrhuDpee0wc3ennWok0pXJS/Prehg3D50ImKSPSboQIVb3+rwiXfzm/+0V90F/66B1ehGHdI1GuvjpQpamY5EuMeIjwulVeJ5NpIuTl1tquq30YND0ot9Il+wSPA25tXocbBuJlAWNdLlhxFKXvzw3Ab6YXOx6StMtDerluqaQLkaM/vIfboXdr43WdMnkhuEgky5eCC9jJEaj5EiXnz5MnpiW/KxhoVUTVrPwfFp9F5Eu9c01lxLoxp5LtIONRbYJhlcuW4dhm7wiXQxsHiXhJxqtIm4hBchu9Bv33Q7P9P6VVUjvN73YMbwurdaLRdeC1mZxhwjaTyZxlp6VA/BgrA3E6Jjfmi43UiiTHCfSFVRvz/qvER14JMttfFZPJ9aeXQ2kK9tIl4iN2ysj3IrdWV+v10yIZIr/3ynSRTVdudz61ccK4+ahPmt3CSbpY5IuFOlS9/q8I11MJU6s+Kk39veGfWctbb9fWgo3dJ+HB7uTpxf9ki5+elE+VSimz8RrmV6x4HXq0e0dY6Ie1xYWwfTICbippDsRcbsEnVWViajRLItMsgMC7P9M/2xOLzqlMKdHLtpjMLlepxfl+bthlIxMvg4/bK1JeZ+a0/hB3rdmSqSL+eun//gMLP+7Q5bvFkTuhKc696SdFsz2PV1OxMiLdMnRMUbcNszblFbTRacX1TfWXEugG3uuEfc/HtnGP1a5bhmGbUIlXbkGmMbDRYAR001d34Hna5Ov+sD6hLEQsOYuy9Gpi9eLTFX0ofd0qaAXTl+dfhaGRibpY5IuzBdM0icMXYh0hbGjGDAmi9o9ve+btHeRYagWxkLAmLeTDN26uBGkbPWhN9Jni1y4/XT7Wa61M0kfk3Qh0qW+Eoh0qWNIEpARMGmTIl2QnQNRHNkGEUxkUWQbZEARxZFt1MAk0qWGH/XWgAAtag2gIog0yS70xI7gEBpFmORrJulC60bd6Yl0qWNIEpARMGmTIl2QnQNRHNkGEUxkUWQbZEARxZFt1MAk0qWGH/XWgAAtag2gIog0yS70xI7gEBpFmORrJulC60bd6Yl0qWNIEpARMGmTIl2QnQNRHNkGEUxkUWQbZEARxZFt1MAk0qWGH/XWgAAtag2gIog0yS70xI7gEBpFmORrJulC60bd6Yl0qWNIEpARMGmTIl2QnQNRHNkGEUxkUWQbZEARxZFt1MAk0qWGH/XWgAAtag2gIog0yS70xI7gEBpFmORrJulC60bd6Yl0qWNIEpARMGmTIl2QnQNRHNkGEUxkUWQbZEARxZFt1MAk0qWGH/XWgAAtag2gIog0yS70xI7gEBpFmORrJulC60bd6Yl0qWNIEpARMGmTIl2QnQNRHNkGEUxkUWQbZEARxZFt1MAk0qWGH/XWgAAtag2gIog0yS70xI7gEBpFmORrJulC60bd6Yl0qWMYWMLXF3qgat1euCT1LIDZsKm3DmZEIoFlsg5xGILOqkp489ww3FUWg8aSKRnlsLlUV56Fip7arMfNOEjABmN5k2I/QL22/XSaxksbB6B2YUHCRoPwyspV8NqZb6Agcic81bkHiqcm7e11TRTo9CPXvO/l1f3WOOzz9rMLoOngV3D91Cjs6qyAOxLDOLXz+pFrcdyxbBcnFzRJH5N0oRt7wA0zx81N8rUwdCHSlWOHZcO5EZ1T3TXw7NEfQ2usDCZkwbuyIVDZ9NENGVsIvft7dQ+Tlfzommigfp/+4zNQvve7NulhROjkvD6LGF0+tBke3jHJ1zU+qBtB4mSPkzux3UcNC+DAlB2wPTrNGrO0by681bgoRQ8nIicrGsYGFQjsgI1N0sckXYh0BXTkHDc3ydfC0IVIV44d1ot0yQQoDiegaXkzfBiPgxgFc/p+euR9u20ECiHa1gYPTU5lbl8ej8GjzQOWxlzeXUO9VqSrcPb7cOL4sHVtcW0PPDGnwCKHYkSOf8/Gf27FAEwr+Rfoen0Q5PHc5u0XalNI13D8MNTM+wXM2f2aFc1if2+cfxCWHdoCs6Roptc1ETeRtIlErGLTJzApchhuWXPIJnScXHFC9WL0mkSUrR5u29xhR9e4DD/jh7FB+fWZbNqZpI9JuhDpysabc9fHJF8LQxciXbnzVXskv5Gud1uKob9wm5UmZIQp2jXBioKdbHX+/tYh91QhJ0pLupNpRBZVaxpcCu1ln1rE6qaRdCQfpyV2J7xavA9mtCbJmzhnTvB+W1hszefGEzEob/7aTo2K8+bj7Kqb6xtpU0gXIzt1J5fD28//1NKdR5/mTO2Ajr7U9KLXNS9ilEwX1sOtDVvg84bVwNOLTpGuJwsaYf2Z8rQoF5fvROhEo4WxQfl2miwamqSPSboQ6crCmXPYxSRfC0MXIl05dFY+lFtN17cml9ipRZkkWdGjFfvgz1tK4eOao8DJE/+ekaPFkWTUyqk+S2wnRsBkAuhGCMX5cNJ1S023FRFjtWR7qrbBzVUxWDI5EXFLzJOTNVkPP3CbQLpY5Ojpee1w14vbYeX0G23StbK8HWZuPmJFo0RidNu53eB2jdViiaStqSNZn8U+qVGsVTbpYtfE5SgCegAAIABJREFUmq6dndPgpfl98Ej/Itg/vx6OXhmGeyo6rJQj/2RKMYaxQfnxl2zbmKSPSboQ6crWo3PTzyRfC0MXIl258dOUUWRiw6JLjzUPpqQE01ONSWLz7RX3QX/roE2sRMLjRbrYBESyx1OCch95XBa12n70ijV/npK0SJdArNg11u5UURc8PucDO83JlXZLd7pBbwLp4vVaL7y0An4wfrwjaeLEbObuTng40gFr678BTqjEa7zQXq4BE0nbxEiyQF8spBfx5YSKRbteHq6HF9YMWaSQjc3lE+kKYTNAGjKMmwfS1B3FmKSPSboQIVb3eiJd6hgGluAUTWJpuI37brdTdNiRLnmSPI24tXocbKsajY7xua3pngsHircBj2alpRdTolmpkS5W78UjcYHBSXQwgXSxKBMrXv+75bfC+BHSxYhU/apP4MndyUiVSKyW33nE9RonRXIRvdtJSTmCJdZrfdaw0Crkr1l4Pq2+i0hXNt6aH33oxp4fdnCaBdmGbCMiQKQrBH9wIl38dQ/vTqwEXv+EWdMl1oSxk5GZSNdjsamJyFoqGauqHIAHY23JFGKiwP/07CprrrJst3n7PZE51kkXr7NiBeuLb/6DTbqYq4l1UzKJ8rrG+noVuzu9CoK7tkim+P+dIl1U0xXCZoA0JN3YkYDUIIZsowFUJJFh2IZIF5Lxgohxq5vi6T9e1B7k9CIrjs/0+genVCE/vcjrwEQZ1yfe3bVh31lLtWsLi2B65ATcVNKdTCEmIl3Xzo7A8WPnPU8vBk0t8vD1WH5lhBjBkkkXu7Zh3iarpmpcwQJoPtJon2T0usb9y40YuZEumdiJY4gRMTq9GGQF51/bMG4eOlEwSR+TdOH7M4/e6/SBXMgOwzZEunJhWcPGcCvKx1IzjIWANXdZDrYufl9kGlSfTKlF0zZb0/TB9rOg/oPd3iR9TNKF1o26pxPpUsfwqpNApMu/yXVsuH4Ikv8Zjr7KQjwV6dRfhy5B5ond1iR9TNKFbuzYno4rzyRfC0MXIl24/kjSEBAIYyEgTNtRBOmiC1l1uWQbdQx1SSDb6EJWXS7ZRg1DIl1q+FFvDQjQotYAKoJIk+xC0RQEh9AowiRfM0kXWjfqTk+kSx1DkoCMgEmbFOmC7ByI4sg2iGAiiyLbIAOKKI5sowYmkS41/Ki3BgRoUWsAFUGkSXahJ3YEh9AowiRfM0kXWjfqTk+kSx1DkoCMgEmbFOmC7ByI4sg2iGAiiyLbIAOKKI5sowYmkS41/Ki3BgRoUWsAFUGkSXahJ3YEh9AowiRfM0kXWjfqTk+kSx1DkoCMgEmbFOmC7ByI4sg2iGAiiyLbIAOKKI5sowYmkS41/Ki3BgRoUWsAFUGkSXahJ3YEh9AowiRfM0kXWjfqTk+kSx1DkoCMgEmbFOmC7ByI4sg2iGAiiyLbIAOKKI5sowYmkS41/Ki3BgRoUWsAFUGkSXahJ3YEh9AowiRfM0kXWjfqTk+kSx1DkoCMgEmbFOmC7ByI4sg2iGAiiyLbIAOKKI5sowYmkS41/Ki3BgRoUWsAFUGkSXahJ3YEh9AowiRfM0kXWjfqTj/mSNep7hrYsO+srfni2h54Yk6BIxJfX+iB6sqzUNFTCzMiEVe0/LYTBbzbUgynirpcx3YajI/zWGwq7KlynlcchqCzqhIuF78BFYX7fc1f3Q3yS0I+bVJxGIRXVq6Cy6v7oXZh0s/YD06vbT9tgzauYAE0H2mEWQkf+2pwN6wsb4cLw3Fg3ze8VQcLbhyfBrD4o9ViH9ZwaeOAPdbbzy6ApoNfwfVTo7CrswLuSLix05yYjLX130CmH61WsXQ+2UVFD97XJH1M0oVu7BjerU+GSb4Whi5jinQxwvXs0R9Da6wMJlg3nxPQtLwZ/r20FRpLpujzMgfJ2ZAuLsaL5Imky41M5lTREAZjC6F3f6+2kaNror5lc4IlE6GT8/psYsSFDccPw4Z5m+BPGw5b11jfp975Mex+7ecWWeIfkSBNgMPw9Lx2mLm7E4qnJknbqvJfwbKOTng40mETqY8aFsCBKTtge3QaXD60GUr75sJbjYtS9BCJnG8FAzQMY4MKML3ATU3SxyRdiHQFduWcdjDJ18LQZcyQLkawnlsxAEu6U6NWIoG5a6gX6lrOwu2Jth+evxfq2r6bElHiJO3DeByuLSxKRL8uwg+rY7A40mtFlFgEqqv1CvxoUg/0HrtiObJbJI2Rrn+O3wvHjh1LaScTKnl+fBwx0iXPa3rkBNxU0m1HujLNy02vhyaP3um95sWigF8ej8GjzQOWLgUwGzb11lnRQdavat1euDSyrDkeXmOK10RZfneGfCFdjABVbPoEJkUOwy1rDllEKhllqofbNndYJEn8yNEmRsJq5v0C5ux+LaUti15x0uZEoPj1JwsabXLFCdWL0Wtcx2fjbZx/EJYd2mJF3bA/YWxQ2DqI8kzSxyRdiHTp9Hp12Sb5Whi6jBnSxUhBtGuCHeXiriOn4xhBuHsk5SgTDUaU+gu3WVExJu+x5kGItrWlkK7Oyr1wU1nMbuM0JhubyWq/sNyaz61Do2lMRvzElKYf0iXPi5EfRm54epGRLq95uenll3RNj7yfQmhZRLFpcCm8WjcOmlbsgxmtbcBkibr8vrXEEUvWTpwPl7Wrbq7v1Z4PpIuTq1sbtsDnDavt9CKPZh29Mmzrw6NgfkhXJmLErvPIl1OkixGx9WfK06JcfDIiofMNuM+GYWxQPqeWVTOT9DFJFyJdWblzzjqZ5Gth6DKmSNdfv/djcLp581SfXAMlkgSZWDCytqdqG9xclRrpEiNQXmlAOb3oZw6ckIk1XU7zkmu65Bowv3oFIV0iuXJbvTza+BdvzIV/KnnPjjqKWC6Z/H4KUXOLUHrtEPlAulIjS6M1XWL6j0W6xMjX8juPpKUXH9/xP+Gpzr12pMur9orXav1u/k4rjcg+Yk3Xzs5p8NL8PnikfxHsn18PjPjdU9Fht2XtdaYYw9igdN5JTNLHJF2IdOn0enXZJvlaGLqMedLlVXguR5nWt1yBuljpSD2YKumqgi+LW60IEI98scJ6L+LnRLrkyJiTLC/Sxfq76eWXdMlpxAgUWhFAUbftR5PpVpYuZGlbloZ1wtIiXYk6O5bC5R9ZXqZlHzbpEonRxEh6Ib08fzG6JBbFT6/YAv/buzthUuMem3SxdOLDOybZRfFcFo+gXV69K4VEiWNxQsWiXS8P18MLa4ZS6sGIdGXyrNTrYWy4wWbov7VJuhDp8m/3MFqa5Gth6DJmSJffmi631J7OSFcQ4ifXdOVDpEs+2clTuS2xO+HVFc1wS023dUqTk9g13d6RLqfauyCbQ9ikSz6dyOcuR5X4924pPUakauf9I5Qd3mrXWDlFujhRm7n5SFpxvkjKeL3WZw0LrZqwmoXn0+q7KNLl39PC2HD9zy5YS5N0IdIVzPa5bm2Sr4Why5ghXcyxWH3Qxn2320Xe8unFTMXifmq6gqQXO4bXWelOOd0npurEOTtFuhjh8VPT5TUvPzVdFlZCfZY4r++daEupl+Oka2v1ONgmvNrCKqqvHIAHY21wXbe/mi63WjyvjSJs0iXOTX49gxypYtf/fuVO+NHuzTATjqREnhgBqju5HN5+/qe2SLmmyw/hkiNYnFg5Rbqopsv/LSiMDdf/7IK1NEkXIl3BbJ/r1ib5Whi6jCnSxZxLPGXH/hZPF2YiXeKpuhuKSuGBS8eVarr46UU5fSa+S+z7paVwQ/d5q/7JjXTxSNmb54atU5VOpxe9SJebXmJ6kZNW/o4zcV6c+IkpRH56UdRFnNvjcz6w04gilmxMcT5BU4t8w82XV0Zkek9XQeTORM1WavrwgWfesfZB9m6tF15aAT8Yn/qeLpEYuUXVxFdUOBXos1dTyDVdmYr0VTfnMDYo1TlnIvfjJdvoHE+nbLKNTnTVZJNt1PDT2TsM24w50oVlgGxeiIo1tk45YeiFPWYYC0GXTZx00fUiU52pRdOiD6bpY9KaIdvo2o1w5Jrka2HoctWQLjGaxFwvmwgMjsviSglDL91jhrEQcK0yKs1NF2yCpIvIibiYZBe6sevyeBy5JvmaSbrQulH376uGdKlDRRJyhYBJmxTpkiuvCT4O2SY4ZrnqQbbJFdLBxyHbBMdM7EGkSw0/6q0BAVrUGkBFEGmSXeiJHcEhNIowyddM0oXWjbrTE+lSx5AkICNg0iZFuiA7B6I4sg0imMiiyDbIgCKKI9uogUmkSw0/6q0BAVrUGkBFEGmSXeiJHcEhNIowyddM0oXWjbrTE+lSx5AkICNg0iZFuiA7B6I4sg0imMiiyDbIgCKKI9uogUmkSw0/6q0BAVrUGkBFEGmSXeiJHcEhNIowyddM0oXWjbrTE+lSx5AkICNg0iZFuiA7B6I4sg0imMiiyDbIgCKKI9uogUmkSw0/6q0BAVrUGkBFEGmSXeiJHcEhNIowyddM0oXWjbrTE+lSx5AkICNg0iZFuiA7B6I4sg0imMiiyDbIgCKKI9uogUmkSw0/6q0BAVrUGkBFEGmSXeiJHcEhNIowyddM0oXWjbrTE+lSx5AkICNg0iZFuiA7B6I4sg0imMiiyDbIgCKKI9uogWks6WI/wly1bi9ckvBZXNsDT8wp8ESN/4DzY7GpsKfqLFT01MKMSCSlD//9wcvFb0BF4X6ornRup2ae/Ort9sPW9IPX7naiDSq/fFicDdmGbJMLBEzyM4p0qXuM0aRLJkIWEascgAdjbfDQ5FQS5QSlF5kQSVcmEqdupvyQgE2u3LRim1Tv/l4lpaNrohn7Xz60GR545h2r3biCBdB8pBFmjZBrr2tcMPuR6dUrT0Pl4dF+4qDsR61fuFwJf//kDGBtV5a3w4XhuNVkaeMA1C5Mkv+3n10ATQe/guunRmFXZwXckXDNOAzCKytXweXV/Xa7XPyotRdodPPI6FKhNSDbhAZ9xoHJNhkhCq1BGLa5qkgXI0p7qrbBzVUxWBzpTYlOiYTirqHkNTnSFYcT0LS8GT6Mx+HawiKYHjkBN5V025Eu1r6r9Qr8aFIP9B67YjmSGFmT+8+IXIQfVsfSCKDYrgBmw6beusRYF6GzqhJYZI2RPJlAfnk8Bo82D8C3JpfAf5zUm3F8LpdF8JisupazcHtCvw/P32uN970TbZY89uFtOS6Fs9+HE8eHbf3ESN/0yPvw3IoBmFbyL9D1+iBEoBCibf5ILl95uSBdMmFiBGn9mXJ4q3GRRZBEMiVe43PkpEwmayIhW1v/DWzYvgK+9ycfwdPz2mHm7k4onhqx5K8q/xUs6+iEhyMdwNo1dVTARw0L4MCUHbA9Og2Y/NK+udZ8ZCL38nC91SbXnzA2KJ06mqSPSbowm5ukj0m6kG3Ud6SrinQxcrG+5QrUxUrh1qGewKTr3ZZi6C/cBo0lU4CTHEaqOOlgpKuzci/cVBaz20S7JkBrrAwmJKIXcv/HmgcdCYncjsv4Hz010Bl/ypJ9qrsGNuw7a5M69vc/DH4H/v34cV/js/ZNg0thV93cJIFLpGLvHkm9MtLHiNOS7mRalbdtL/vUaifrt7V6HGwbScMy0sWI6W8Liy29bzwRg/Lmry0iJ6do3dw3F6RLHtsraiVfY5GprX0T4WdbfgIHGs44RrpYm5Pz+mDtj/4H/C//b1sageLXnyxotK8xcscI1YvRaxJRrnq4bXOHRdLEz3D8MGycfxCWHdpiR+XUtwF/Eujm4Q+nMFqRbcJA3d+YZBt/OIXRKgzbGE26nGq6WCSIkYGgpItHcDgRcarpkiNjYvTMqT+PuompTpnwWFGvFftgRmubFZ3jpPFkaxV8VjgJDpy7F16tu9OK4H17xX3Q3zpo16DJ43M5bDxxHB7B4rVr4pji3OT0olPtGyddt9R0WxE5MbroJ6XLn6RykV6UI0g80iUvfqdIF2vjRtREYvS9P/wBxo8fn0aceOTLKdLFiJjbXJggTth4ejJXm1UYG5RO3UzSxyRdKJqi0+vVZZvka2HoYjTpkmu6vIrfM6UXZWLCXJdFpE4VdaVEusTCe1kmJ0ws6uVGRmRiI7ZbMjmZuvuLN+bCP5W8B4tak4X+a7pT/+bkKY10jaRG+bLjqT851cquiwcR3Nq5kq4RkshJFsfJb+1bLiNdvNbqYnwKPNW5JyWy5HXNi3SJtVc3/OGLFNLFa7V+N3+nnSIUa7p2dk6Dl+b3wSP9i2D//Ho4emUY7qnoSEkn8ohYrlOMYWxQ6rcIdwkm6WOSLkS6dHq9umyTfC0MXa4q0uVElJwIilNNVz5EuhiJYQTm40Tq7tL5ibC1Nhnhurao0Ip4sfSfSDS9Im3i0stUIM9SqSzFKaYReS2YXPtmRboE0jVWIl0sOiXWXYn4uF1zi3SxeqyHd0yyiuJF0sXkbJi3KVEcv8u1JosTKhbtYqnGF9YMpc2LSJf6jYNu7DgY6pISxs2QdPGHANnGH05ura4q0iWmzVjUSCQHrG5p477brdojt0J6PzVdbpEuRlJUa7pYhIzXkt01Ujcm1nbJr66QyZRbrZicauUki9eiBSZdiYja6dlVVr2YLMuPu+Yy0iXOxytt53TNjXQ5Rbp41Gzm5iP2aUQZCzEt+VnDQqsmrGbh+bT6LiJdfrwocxu6eWTGKKwWZJuwkM88LtkmM0ZeLYwmXZne08UJCwPo+6WlcEP3eat43P304pB1gvDNc8Oupxe9SJd4KvGGolJ44NJx6ySlXOvkdHqRF6E7nVrkhepyCjQ9VTl6+lI8VegU6WIEbfvR5AlM+fSiHB0Ua9l4pOva2RE4fux83p5eFKNR7BUNYjTroXNb7EiVfE0sbPdb03Xdv75pvS7Ci3AxnEUyxf/vFOmimi61TY/3ppsHDo46pJBtdKCKI5Nso4ajsaRLDRb9vTOl9PTPQM8IbkX4QUbLVaSLEZu17aeTxDJyZ0pNl9c1rovXiUfx9OLF/7bOHkfEQXxXl/wOLp6KlGu66PRiEE/ybks3DzwssSWRbbARxZNHtlHDkkiXGn6+e/MifhYlY59s3l/le7AQG2KRLvnEX4gqZTU0J1HsPV0/kE4vZiVwpFNYqUU2vEmbrWn6kG1UVpXevmQbvfiqSA/DNkS6VCxGfbUgEMZC0KGI+EZ6DPn0RnoMFEdlmOJnphFI0/Qxyc/INup7EJEudQxJAjICJm1SpAuycyCKI9sggoksimyDDCiiOLKNGphEutTwo94aEKBFrQFUBJEm2YWe2BEcQqMIk3zNJF1o3ag7PZEudQxJAjICJm1SpAuycyCKI9sggoksimyDDCiiOLKNGphEutTwo94aEKBFrQFUBJEm2YWe2BEcQqMIk3zNJF1o3ag7PZEudQxJAjICJm1SpAuycyCKI9sggoksimyDDCiiOLKNGphEutTwo94aEKBFrQFUBJEm2YWe2BEcQqMIk3zNJF1o3ag7PZEudQxJAjICJm1SpAuycyCKI9sggoksimyDDCiiOLKNGphEutTwo94aEKBFrQFUBJEm2YWe2BEcQqMIk3zNJF1o3ag7PZEudQxJAjICJm1SpAuycyCKI9sggoksimyDDCiiOLKNGphEutTwo94aEKBFrQFUBJEm2YWe2BEcQqMIk3zNJF1o3ag7PZEudQxJAjICJm1SpAuycyCKI9sggoksimyDDCiiOLKNGphEutTw89X76ws9ULVuL1ySWi+u7YEn5hR4ymB9qyvPwmOxqbCn6ixU9NTCjEgkpQ//Me3LxW9AReF+q71TO1+TzYNGOhc1+/3CleXtcGE4bmm6tHEAahcWAPudxLXtp9O059fFfuMKFkDzkUaYJdmBdZZ/kJrpct2/vgmrV56GysOjfd5+dgE0HfwKrp8ahV2dFXBHwqRxGIRXVq6Cy6v7rTmxT9i/tygCotMuYbidSfqYpAtFU8JYDf7HNMnXwtCFSJd/X8u6JSdOIhGyiFjlADwYa4OHJqeSKKeBnGTwdiLpykTislYihx3ZQujd3xt4xOiaqGef4fhheHpeO8zc3QnFUyMWoVlV/itY1pH8W/xcPrQZHt4xySJEE+AwbJi3Cf604bBN0NYdvN8mS7yfE0H69B+fgeV/dwhEoia2+6hhARyYsgO2R6cBG7O0by681bgoZS4ykQsMDFKHMDYopKk7ijFJH5N0IdKl0+vVZZvka2HoQqRL3QczSnAiTIwo7anaBjdXxWBxpDclOiW2v2soeU2OdMXhBDQtb4YP43G4trAIpkdOwE0l3Xaki7Xvar0CP5rUA73HrlhzFCNrcv8ZkYvww+pYGgGUo3R+ZCyZ/L49twKYDZt669Kic16g6SJdTqSGRZxOzuuzI0tsXk7kbG39N9DUkYxIyde5LrIs9vfWvu/Az7YshgMNZ+xIlzgPTqhejF6TiHLVw22bO9IIIBtv4/yDsOzQFsfoWkYHRGoQxgaFNHUiXTqB1CDbJF8zSRcixOrOTqRLHcOMEtwiXetbrkBdrBRuHUqmEHkkzA/perelGPoLt0FjyRT48ngMHm0esEgVTy8y0tVZuRduKovZbaJdE6A1VgYTEsRB7v9Y8yBE21KjbhYxW7EPZrQmv5f1cJNxXXeJPbdT3TXQNLgUdtXNzYgTb6CLdMkTcCNPjAitP1NuR5zkCJZTPzdi5JRedIp0PVnQmDKmPFcncugbUKSGdPNAAlKDGLKNBlCRRJJtkIDUICYM2xDp0mBIWaRbTde3JpdYJCgo6ZoeeR+eWzEAS7qT9V1ONV1yZEwkTE79edTNK9XJSBgf103GjZUl8JuaLpuoiX3kWjQ36HNBunj91O/m77RSe/zjRqjk9OLjO76Gpzr32FEpt9orPzVdOzunwUvz++CR/kWwf349HL0yDPdUdKTMKx9SjGFsUDqXp0n6mKQLRVN0er26bJN8LQxdiHSp+2BGCW7pxc6qSnAqfs8U6eIpR7FGjEWdThV1pUS6xMJ7WSaPsrGol5jqdCJdTPb2o8kUJU8Xsjk4ybBIV3WLlfbknwgUpkXRvEDTTboYsWIk6vLqXSnEhs1JrOViqUT+EQvpp1dsgbsP7UpJBbr1cyNdov6cULFo18vD9fDCmqGU2jPWlkhXxmUWuEEYG27gSfrsYJIuRLp8Gj2kZib5Whi6EOnKgeO6FcHLRMlvejFXkS5e93VLTbd1ytJPtIyRro9rjtpRuGzg1Um6OHmauflISh0XnydL4/HCdre5O6USg0a6xMgar9f6rGGhVV9Ws/B8Wn0Xka5sPMm7TxgbLr4WSYkm6WKaPmQbXV6vLjcM2xDpUrdbRgnOka7Reimr8FyonWJ1UBv33W4VoLsV0vup6XKLdLE0n5+aLnne8olLPzVdrN5MrCXLCNbIDUTH6cVMhCuZckwvZpdTjnLNF9MpSE2XU5SLpTg5sXKKdFFNlx/PCdYmjA032Az9tzZJFyJd/u0eRkuTfC0MXYh05cBr/bynixGtDfvOWrP5fmkp3NB93ooWuZ9eHAKWnnzz3LDr6UUv0iWeXryhqBQeuHTcOkkppxfFeYmnJFnky02GeHoxaGqRb7g6SFemd3G5FdazObH04QPPvGPZR3y3lug+TsTIK73oVKDP0p5yTRedXtSzSMPYcPVoQpEuXbhiyDXJz4gQq3sEkS51DMe8BK93gPlVDkMGH2usblJOKUYMXfIhtWjaZmuaPhh+5net56KdSfqYpAutG3XvJ9KljuGYk8BPO7IoGftkE43CkOEG3FjepJzeSD9+/PisfYTeSJ81dBk7jmU/k5UzSRe6sWd03VAbmORrYehCpCtU96XBnRAIYyHosgTpogtZdblkG3UMdUkg2+hCVl0u2UYNQyJdavhRbw0I0KLWACqCSJPsQtEUBIfQKMIkXzNJF1o36k5PpEsdQ5KAjIBJmxTpguwciOLINohgIosi2yADiiiObKMGJpEuNfyotwYEaFFrABVBpEl2oSd2BIfQKMIkXzNJF1o36k5PpEsdQ5KAjIBJmxTpguwciOLINohgIosi2yADiiiObKMGJpEuNfyotwYEaFFrABVBpEl2oSd2BIfQKMIkXzNJF1o36k5PpEsdQ5KAjIBJmxTpguwciOLINohgIosi2yADiiiObKMGJpEuNfyotwYEaFFrABVBpEl2oSd2BIfQKMIkXzNJF1o36k5PpEsdQ5KAjIBJmxTpguwciOLINohgIosi2yADiiiObKMGJpEuNfyotwYEaFFrABVBpEl2oSd2BIfQKMIkXzNJF1o36k5PpEsdQ5KAjIBJmxTpguwciOLINohgIosi2yADiiiObKMGJpEuNfyotwYEaFFrABVBpEl2oSd2BIfQKMIkXzNJF1o36k7vi3R9faEHqtbthUvSeItre+CJOQWes2B9qyvPwmOxqbCn6ixU9NTCjEgkpQ//8eTLxW9AReF+q71TO3V1w5Mg6ihiJv5w9HeLiuB/ngDjdA+Kuq5Niv149MrydrgwHLemtLRxAGoXJv2X/VD12vbT9lTHFSyA5iONMCvhq8Pxw7Bh3iY4emUYrp8ahV2dFXBHqgvbMl4eroft0Wm2nM9/8wt46m8uQOXhpCz2efvZBdB08KsUWXEYhFdWroLLq/vtOeXTj12bttmapo+uNRN07WK1N0kfk3ShdaPu4b5Jl0yELCJWOQAPxtrgockOdyBpbpx8ZSJdmUicusrhSHAjXSIudw31Gkk4gyLONqne/b2BukXXRD3bM+L09Lx2mLm7E4qnRoARmlXlv4JlHcm/GRE6Oa/PJjxcmEyGGDlbf6Yc3mpclDKeE0G6fGgzPPDMOyASOLHdRw0L4MCUHRZJY21L++amyWXjyUQuEDCIjenmgQgmsiiyDTKgiOLINohgIosKwzZZky5GIvZUbYObq2KwOJJKFpyIhBzpisMJaFreDB/G43BtYRFMj5yAm0q67UgXa9/VegUkMDgLAAAYHElEQVR+NKkHeo9dsaAWI2ty/xmRi/DD6lgaAXRrx+Zc13IWbk/M48Pz98Km3rrEHN6351QAs63vZCIk67a+xf8cuY6cWIpzi0AhPFozF/pbB+1Il3idz4dFCd2+Z3OTdeJRRZn0yn9/eTwGjzYPWDiLY8lRTj82WDI5HUc5uum1dnSQLidSw4lWzcLziShTPdy2ucMiYOKHkbWN8w/CskNbrEgVI02rV55OiVyx9jJpY39v7ZsI5RvmwqH/etFuL86DE6oXo9f4Hh95zwkkLowNKtAEAzY2SR+TdGFmNEkfk3Qh2wTcZByaZ0262M2YEY66WCncOpRMIfIolh/S9W5LMfQXboPGkinAb/jshs7Ti4x0dVbuhZvKYnabaNcEaI2VwYTEfVHu/1jzIETb0qNubu0Y6WIp07uFFKnclo23tXocbBPSorJuTIbfOTJSI6dkvSJdTvNh+p9sTcWO48LsIOvEbe5FuhjZfG7FACzpTqZ+T3XXQNPgUni1bhw0rdgHM1qTuMoy3LC9rrvEti2Xtaturm9v1UG65MHFyNfyO4/Y6UPejqce5QiWHDFj7WViJo4lpxedIl1PFjQ6Rs+4HLconG9AkRrSzQMJSA1iyDYaQEUSSbZBAlKDmDBs45t0OdV0fWtyiUWCgpIu+SbvVNMlR8bEG75Tfx51E1OdLCIkkgmv6Fx620QkLkE4flCVGn3yIkmZ5thZVQmsbk1MobrJS9cxOZ8/bymFj2uO2gTJinqNECM54ij6aCbSJZIrN98WMXKzwY2VJfCbmi6bqMm4+lk3ukkXTxn+bv5OK7UnpxqT15ORr4fObYGHd0yy67icSJdX7VWmmq6dndPgpfl98Ej/Itg/v96qG7unoiOlLixfUoxhbFB+/CXbNibpY5IuFE3J1qNz088kXwtDF9+kS67p8ip+zxTpcqpdYlGTU0VdKZEusfDeKa3Homws6iWSKZF0idE4uZ1XSjSZwkumT7+94r6UlJ9f0uWlox/SJfd3m48XkfRLupi+YhqRpTrFqCGzzfajyRSvmHblkU4RW4t0VbdYaWP+keVl2hp0ki5eFH959a4UYiPPiUeXnvpuJ6yt/waaOpLF806ki6UMRWLmFemSx+GEikW7WO3WC2uGUmrPWHsiXZk8JrvrYWy42c00cy+TdCHSldneYbYwydfC0CVr0sWMLhMlv+lFinSNnvjMh0iXXG/F0r0sZdkSuxNeXdEMt9R0W9G5TJE8RlIZ6RIjcdlsDrpIFz+9OHPzkbSCeTfSVb1gIGNNV9BIFx9LTEt+1rDQKuR3qi8j0pWNF2XuE8aGm3lW2bUwSRciXdn5QK56meRrYeiSNekS01pW4bRQ+8PqeDbuuz2lEF1OF/qp6XKLdDGSgFHTJUfvnGqoLOJRPFrX5KSbE9l0mmMuarrcXrch2otFA0U9vneizSJZvF6Oky6nejbxxKqfmi4ui8v2szHoIF1ehEuOVLH04t+v3Ak/2r0Zfhw5Z73KgacinU4vBqnpEvUXyRT/v1Oki2q6/HhN8DZhbLjBZ+mvh0m6EOnyZ/OwWpnka2Ho4pt0ZXpPF7uJb9h31vKD75eWwg3d5626I54mSz+9OASsxunNc8Oupxe9SJd4gu+GolJ44NJx6ySl/PoKt3ZO9U9upwIz6eZGusR3cIknNP2kF71OKXqdXvR6x5mbHpwgyilEXlTP7Srr4IateHoxaGqRb7jYr4yQ38PFNyxeMC9eL4jcCU917rFPMvp5T5cbMXKq6WJjOxXo83eBiTVdXoQu15tuGBuUTh1N0sckXYh06fR6ddkm+VoYuvgiXepm0ivB6x1g4sh+2+mdrZnSMbENYyGoWsUtxaiqS76kFk27EZqmj6qfqfo/dn+T9DFJF1o36p4+JkmXGEFiELhFU/y2U4fx6pOgE9uxukk5ESQVXeiN9HrXlYpt9M4suHSTdKEbe3D757KHSb4Whi5jknTl0sForNwjEMZC0KUl6aILWXW5ZBt1DHVJINvoQlZdLtlGDUMiXWr4UW8NCNCi1gAqgkiT7ELRFASH0CjCJF8zSRdaN+pOT6RLHUOSgIyASZsU6YLsHIjiyDaIYCKLItsgA4oojmyjBiaRLjX8qLcGBGhRawAVQaRJdqEndgSH0CjCJF8zSRdaN+pOT6RLHUOSgIyASZsU6YLsHIjiyDaIYCKLItsgA4oojmyjBiaRLjX8qLcGBGhRawAVQaRJdqEndgSH0CjCJF8zSRdaN+pOT6RLHUOSgIyASZsU6YLsHIjiyDaIYCKLItsgA4oojmyjBiaRLjX8qLcGBGhRawAVQaRJdqEndgSH0CjCJF8zSRdaN+pOT6RLHUOSgIyASZsU6YLsHIjiyDaIYCKLItsgA4oojmyjBiaRLjX8qLcGBGhRawAVQaRJdqEndgSH0CjCJF8zSRdaN+pOT6RLHUOSgIyASZsU6YLsHIjiyDaIYCKLItsgA4oojmyjBiaRLjX8qLcGBGhRawAVQaRJdqEndgSH0CjCJF8zSRdaN+pOH5h0fX2hB6rW7YW7a3vgiTkF9gzY99WVZ6GipxZmRCLKM3u3pRhOFXWljKEs1EWA+OPNd5XFoLFkCtpQXrjwcS8Xv5GVnqLsu4Z6M+KPbSMu77HYVNhThWd7XZsU+wHpleXtcGE4btl3aeMA1C4c9WH2XRwG4ZWVq+Dy6n7rGvsR67Xtp9P8wamv0w9ef/6bX8BTf3MBKg83wqyRdfH2swug6eBXcP3UKOzqrIA7EstFHpcNSD94jbYMHQXp8jO9s3aWbpIudGMPw4P8j2mSr4WhS9ak61OYDZt662yChX1DzyXpwp67X/fFJF1+iK4uPbHlsoXQu7/XL4xWu+iaqGf74fhheHpeO8zc3QnFUyMWoVlV/itY1pH8m384yXIiVazN5UOb4eEdk2yyxPs5ESTW9oFn3oFxBQug+UiSdIntPmpYAAem7IDt0WmW3NK+ufBW46IUPZyIXCBgEBuHsUEhTj9NlEn6mKQLkS6dXq8u2yRfC0OXrEgXi2iV1VwD7Udnwa66uZYVvaIu/Fq0pwx+W90C1xYVQtfrR61+LLK0sXA/PNo8YP/NIk2MdP1z/F44duyY9f1iIbIWhxPQtLwZPozHoUAgf2ycupazcHvi+ofn700hhUyGU7/pkfdtWREohGhbGzw0OXkTdpInthfHZu2/PB6z9eDX5AiUOIdrC4tgeuQE3FTSDY/P+cBVp/UtV+BHk3qg99gVGwu5fV3bd1OiTTwieWlkjTH8KhI4O0UjZdIk29JpfBbllMcQ8XDCwg8x5BsuNulyIjUs4nRyXp8d7WKEqGLTJzApchhuWXMoLQomEzdx+5Jlsb+39k2E8g1z4dB/vWhHusR5cEL1YvSaRHStHm7b3JFCAJl8NubG+Qdh2aEtdqRMfdvMTkIYG1R2M/XXyyR9TNKFSJc//w2rlUm+FoYuWZMulkb8fWuJnQL0S7o+rq6CdydWWmSN37T/WFRt/81JAZPdfmE5tMbK4Nah1NQlI2T9hdusNOCp7hpoGlyaIk9OfXLnFPsxUhDtmuAon7d3SqW6jc3I1HMrBmBJdzK9yufVXvZpCtGR58DIJiNEf3a81FOnm0bSnm7zFsmdRQxX7IMZrUkCmSkNmIl0sXSy1/hyetENC07QM20WOiJd8pgygUqm9+rh1oYt8HnDaju9KPZjJGn9mfK0aJQXMZLTi06RricLGh3l8rFlQpcJP13Xw9igdOlCN3adyKrLNsnXTNKF1o26byuRLnZzb646B+WtpSnESI7uyJGum6tiFhlg6bU9Vdtg9O9EBGuELFzXPUromJo83WhFeARCId7gveqaZCJgRZxG5CyOONdDyWRE7JOc/yjRkomOSNw4kWRtRGLG04t/XFEF/xp7wyZJXjq5kVs/ui9qda69ykS6xOiY0/hOpEu0UVA31U26eP3U7+bvtFJ77JMadRqt6eJz94pyedVeZarp2tk5DV6a3weP9C+C/fPr4eiVYbinosOelzg3PtegeGK1p5sHFpL4csg2+JhiSSTbYCGJLycM2yiRLh7R6Yw/BX9b9Gs7ooNDuqrhy+JWO9WXQrpGUovcBDwt6EaeWLt0AjVK+AKRLpexeUSJRYVYSs9pTk7EiOn132dXwr+2tlrp0kw6BSFdTPb2o8mUJEv9ySlIJ2LIbOonaskinVwfp0J6MfUop20zLR2dpIuRpw3zNiUiWbtsYiOSpomR1EJ6Ple3Wi523euaE+kS9edkj0W7Xh6uhxfWDKXUnhHpyuQt2V8PY8PNfrbePU3ShWlqkj4m6UK2UV/ByqSLR6u+veI+6G8dtE4v4pCu0UiXWHDOIl1itEiEwPukYGr6L9tIl9vYsil4GnBr9TjYNnKyzyvS9W+xY3Zq0ksnP6SL153dUtNtnYpUTS8GjXS5YcFSxRN8HGzVRbr46cWZm4+k1Gu5nVAUI04sxceL3mX9gka6eH8xLflZw0Krvqxm4fm0+q58Kaanm4f6hqtLAtlGF7Lqcsk26hjqkhCGbZRJFwODRzX4iUY51cbqmzbuux2e6f0rq5Deb3qxY3hdWq0Xi8QErc3iBgvaz4nEucm48cRojRgjFk6ky2nuTjVdXvVmfkiXE+mtqhyAhdVzbWIsFrXLaVNuL3Y61Y1Ae0W6xPmLWIRJutwIl7yYnV7dwOu9nArdWf8gNV1OUS6WNuTEyinSRTVderbcMDZcPZqYFRmiaIouL8GRS+tGDUcU0sWmIN6oedpxw76z1uy+X1oKN3Sfhwe7k6cX/ZIufnpRTk+JJwDFa5leXeB16tHPqT6mi9vY7JqcznMiLeI7wdxOL3rpJOo4PXIROqsq4ZfnZqWlDpk9OP58nOvnlMInXecc36Umtuf2YocC/JAudiqVHZBg8+CvEXHCIszTi37ft+VEurzqufjycyNGbulFOTrG055yTRedXlTb4Lx6081DH7aqksk2qgjq60+2UcM2MOlSG456EwKZERiLi9otxaiqS76kFk2LPpimj6qfZV6VuW1hkj4m6ULrRn0dEOlSx5AkICMwVjcpJ4Kkogu9kR7ZsSRxKrbRO7Pg0k3ShW7swe2fyx4m+VoYuhDpyqW30li+EAhjIfiaWBaNSJcsQMtRF7JNjoDOYhiyTRag5agL2UYNaCJdavhRbw0I0KLWACqCSJPsQtEUBIfQKMIkXzNJF1o36k5PpEsdQ5KAjIBJmxTpguwciOLINohgIosi2yADiiiObKMGJpEuNfyotwYEaFFrABVBpEl2oSd2BIfQKMIkXzNJF1o36k5PpEsdQ5KAjIBJmxTpguwciOLINohgIosi2yADiiiObKMGJpEuNfyotwYEaFFrABVBpEl2oSd2BIfQKMIkXzNJF1o36k5PpEsdQ5KAjIBJmxTpguwciOLINohgIosi2yADiiiObKMGJpEuNfyotwYEaFFrABVBpEl2oSd2BIfQKMIkXzNJF1o36k5PpEsdQ5KAjIBJmxTpguwciOLINohgIosi2yADiiiObKMGJpEuNfyotwYEaFFrABVBpEl2oSd2BIfQKMIkXzNJF1o36k5PpEsdQ5KAjIBJmxTpguwciOLINohgIosi2yADiiiObKMGJpEuNfyotwYEaFFrABVBpEl2oSd2BIfQKMIkXzNJF1o36k5PpEsdwzEr4VR3DWzYd9ae/+LaHnhiToH199cXeqC68ixU9NTCjEgk7W+dSpu0SZEuOj1FTfbVZpvLhzbDA8+8Y4E2rmABNB9phFmJtc0+7MfVV5a3w4XheKBrXjJF6zj9GDwbc/XK01B52N883n52ATQd/AqunxqFXZ0VcEdi6nEYhFdWroLLq/uhdmFy76Ifiv//2zmf0LiKOI7/Nl6joFhLxJhKjxZa0WqFSGIrPdhD1Zq0IB6yIUo9GIsEtTQYE4hC2yT479IgNRG1lkTQQzw0trUtbQ+F3gpK0ZT0JAjWoIKatfPqvE5e3u7O7ry3s3l+ckvezO/N7zMzu9985/ee274o1/v/tm/K8aj0OqKrUmIZaa8E15tnNsrI6C5pCj68zsnwjv3y584RGeps8S66pqanMkKaNCBQGwL5rnzRG0UFjhJBr11+Xr4e2iKLhZPyets+uWvgZCBc1LXeY48FwqZJil9bNbdUNJkxzYHEiSAt1kzxZ46j58Hf5OqXveE41L16+v+W4YluuTjwuMy0jMv7+bWi4uycbQ3yKCfyajMLy++SJZGisstSPj5yQXT52oke76sE1tvPnpInj95wsfSPdre6jrbKTMcBuVAoSINskn1TfXL//FTgfDVvOi/nzi4GXbQzpgWb2V67Y30Hf5TV1+934cojQRzzfsUQqI2A6PK4QLj1iiRQSnRFEzJF2Ia5iVDQKPdIiZ832g7JQx9PyvZc8Wsd99387NAOU9S5Un9XDtWlttnQiVK/vzN7t7ww+ITMDFwOnS5TnDVe+1Vuve1iOI5tc4OhuNKu2Xv5W667XP2y6q0JiY5F5bC3/Zg8c2IwdPN8TaqPL/Y0c81SPj5yQXSluTrrNPYfZ0clf6QpdLn0MAsyL5N7XpHfO76Q7ubpZceLe3o/ldt3jQZOmBnj0kiHHG8+EPxdOWjDPz0th/taA7dM9VlnHFvaIEF02VCiDQSWEqhEdJmuVNSJqlZ0xTldpcRP1H0rJbpM8aedrpcahkK3Lm4tRMWer/Xi44s9zVyzlI+PXBBdaa7OOo2tBNPu0xsDYRT9+fZgh3z/6JFY0RVX4xW4Yp2fy4aRMdl2by44ptQumnbHdF2YLQ5Ely0p2kHgJgEb0aVrt64WWuTlyU8ChyjuePHF8b+C6zvWfLfs6FFf0+5SXEw9qlL1VVHRFXe8aN7LrOn6aHKtfNA+K08d3yLT7f1y5p9FeaB7Ijhy1D9xdWQ+1ouPL/Y088xSPj5yQXSluTrrNHYx0VXO6Soquv47itTp5qRZ8mNjsjV340gS0VWnC4FhZYqAjejSCZtulhJPZiH9+u5BWXficHhsV+qaCTAaU11TNVfbx+8JC9/N9uUK6aPjMPtqQaXcrg8X++XdrvnwKFKLQURXOsvbh1BJJxM/9WmIrrRms47jlqvpUiIp6lIVe5pROV3fdJ5eVh+m0o/2sUWC02VLinYQqMzpMnkVO34rdSRYrlYqGrMSp8scm/oMUDVdcXVZ5hh+Htgc1Iu9uvnKsvouRFc6uwPR5cYV0eXGb8X2VrVXez9bHRa3V/r0oimofhnpDGu6zFqvO+eXvnbCFhaiy5YU7SBgJ7qijpPpSqkjRF04r1yi6JONxa6Viqndpkpquswxbb3jWvD0on7CMs7lUkeJWljFOV3UdKWzOxBdblwRXW78VnRvJZCe238qzMF8T5c+avxq7uElTy/Gvbdrfe588LoJ9fSiPlpU9V04XSt6eTD4FUag3PGiEig9h34IsmrIrQlrutTv5vu2zPdglbtWKqbGV0z8xB0vlhqHihdX9K9edxGt6SrnyNVyarMkUhS3LOXjIxdEVy13H/eyIuBjI1gNrIpG5FIFtBp1YW5qA7qal5W6zk29HC1mTaRkLR/XdVbNDkJ0VUONPqkS8LER0kqIXNIi6x6XuXFnaBuhUhHkMjfViDzbPKpp55JLNfdLu0+W8vGRC6Ir7RVK/IoJ+NgIFQ/SsgO5WILy0Iy58QDd8pbMjSUoD82YGzfoiC43fvROgQCbOgWoCYTM0rxwTJLAgkgxRJbWWpZyYd+4L3pElztDIiRMIEsfUuSS8OJIMBxzkyDMhEMxNwkDTTAcc+MGE9Hlxo/eKRBgU6cANYGQWZoX/mNPYEGkGCJLay1LubBv3Bc9osudIRESJrCwsCCNjY0JR/UTjlz8cLe5K3NjQ8lPG+bGD3ebuzI3NpSKt0F0ufGjNwQgAAEIQAACELAigOiywkQjCEAAAhCAAAQg4EYA0eXGj94QgAAEIAABCEDAigCiywoTjSAAAQhAAAIQgIAbAUSXGz96QwACEIAABCAAASsCiC4rTDSCAAQgAAEIQAACbgQQXW786A0BCEAAAhCAAASsCCC6rDDRCAIQgAAEIAABCLgRQHS58aM3BCAAAQhAAAIQsCKA6LLCRCMIQAACEIAABCDgRgDR5caP3hCAAAQgAAEIQMCKAKLLChONIAABCEAAAhCAgBsBRJcbP3pDAAIQgAAEIAABKwKILitMNIIABCAAAQhAAAJuBBBdbvzoDQEIQAACEIAABKwI/AuKJzkZKlHblAAAAABJRU5ErkJggg==;" vertex="1" parent="1">
          <mxGeometry x="270" y="290" width="605" height="341" as="geometry" />
        </mxCell>
      </root>
    </mxGraphModel>
  </diagram>
</mxfile>
